<svg width="227.000000" height="50.000000" viewBox="0 0 227 50" fill="none" xmlns="http://www.w3.org/2000/svg" xmlns:xlink="http://www.w3.org/1999/xlink">
	<desc>
			Created with Pixso.
	</desc>
	<defs>
		<clipPath id="clip3_4">
			<rect id="material-symbols-light:other-houses" width="50.000000" height="50.000000" fill="white" fill-opacity="0"/>
		</clipPath>
	</defs>
	<rect id="material-symbols-light:other-houses" width="50.000000" height="50.000000" fill="#FFFFFF" fill-opacity="0"/>
	<g clip-path="url(#clip3_4)">
		<path id="Vector" d="M10.41 41.66L10.41 22.61L6.38 25.72L5.12 24.07L25 8.85L44.87 24.07L43.61 25.7L39.58 22.61L39.58 41.66L10.41 41.66ZM16.66 30.77C16.23 30.77 15.86 30.61 15.54 30.29C15.22 29.97 15.06 29.59 15.06 29.16C15.06 28.73 15.22 28.36 15.54 28.04C15.86 27.72 16.23 27.56 16.66 27.56C17.09 27.56 17.47 27.72 17.79 28.04C18.11 28.36 18.27 28.73 18.27 29.16C18.27 29.59 18.11 29.97 17.79 30.29C17.47 30.61 17.09 30.77 16.66 30.77ZM25 30.77C24.56 30.77 24.19 30.61 23.87 30.29C23.55 29.97 23.39 29.59 23.39 29.16C23.39 28.73 23.55 28.36 23.87 28.04C24.19 27.72 24.56 27.56 25 27.56C25.43 27.56 25.8 27.72 26.12 28.04C26.44 28.36 26.6 28.73 26.6 29.16C26.6 29.59 26.44 29.97 26.12 30.29C25.8 30.61 25.43 30.77 25 30.77ZM33.33 30.77C32.9 30.77 32.52 30.61 32.2 30.29C31.88 29.97 31.72 29.59 31.72 29.16C31.72 28.73 31.88 28.36 32.2 28.04C32.52 27.72 32.9 27.56 33.33 27.56C33.76 27.56 34.13 27.72 34.45 28.04C34.77 28.36 34.93 28.73 34.93 29.16C34.93 29.59 34.77 29.97 34.45 30.29C34.13 30.61 33.76 30.77 33.33 30.77Z" fill="#CDA274" fill-opacity="1.000000" fill-rule="nonzero"/>
	</g>
	<path id="SELHONO" d="M62 39.17Q64.27 39.72 66.48 39.72Q71.35 39.72 74.01 37.5Q75.3 36.43 75.96 35.05Q76.67 33.58 76.67 31.76Q76.67 29.28 75.53 27.56Q75.29 27.19 74.99 26.86Q73.31 24.95 69.48 23.27L67.64 22.47Q65.56 21.51 64.48 20.29Q64.37 20.18 64.28 20.06Q63.39 18.88 63.39 17.03Q63.39 15.8 63.93 14.88Q64.26 14.31 64.79 13.86Q65.18 13.53 65.62 13.29Q66.77 12.68 68.24 12.68Q68.92 12.68 69.36 12.74Q69.8 12.79 70.32 12.96Q70.83 13.1 71.28 13.36Q71.59 13.54 71.87 13.78Q72.55 14.36 73.24 15.75L74.88 18.75L75.28 18.75L75.51 13.96Q74.11 13 72.21 12.44Q70.32 11.88 68.2 11.88Q65.28 11.88 63.09 12.79Q61.23 13.58 60.07 14.95Q59.87 15.18 59.69 15.44Q59.45 15.79 59.25 16.16Q58.48 17.63 58.48 19.51Q58.48 22.09 59.67 23.87Q60 24.35 60.41 24.78Q62.36 26.76 65.79 28.27L67.43 29Q69.55 30.03 70.51 31.13Q71.48 32.24 71.48 34.19Q71.48 35.44 70.96 36.42Q70.62 37.07 70.05 37.6Q69.91 37.73 69.75 37.86Q68.39 38.92 66.19 38.92Q65.28 38.92 64.53 38.78Q63.79 38.63 62.99 38.23Q61.95 37.79 61.32 37.01Q61.28 36.95 61.23 36.9Q60.6 36.04 60.03 34.91L58.79 32.32L58.39 32.32L58.2 37.75Q59.72 38.63 62 39.17ZM158.92 39.47Q160.17 39.72 161.47 39.72Q162.79 39.72 164.05 39.46Q165.13 39.23 166.17 38.82Q167.03 38.47 167.82 38.01Q169.11 37.25 170.21 36.17Q171.99 34.43 173.03 31.82Q174.07 29.19 174.07 25.79Q174.07 22.32 173.03 19.7Q171.99 17.07 170.21 15.33Q169.05 14.2 167.69 13.44Q166.96 13.03 166.17 12.74Q165.24 12.38 164.27 12.17Q162.9 11.88 161.47 11.88Q160.45 11.88 159.46 12.04Q158.11 12.26 156.82 12.77Q156.21 13.02 155.63 13.32Q154.07 14.15 152.75 15.42Q150.96 17.16 149.91 19.76Q148.88 22.35 148.88 25.79Q148.88 29.28 149.91 31.88Q150.96 34.47 152.73 36.22Q153.92 37.38 155.31 38.15Q156.01 38.54 156.77 38.84Q157.82 39.25 158.92 39.47ZM210.24 39.47Q211.49 39.72 212.79 39.72Q214.11 39.72 215.37 39.46Q216.45 39.23 217.49 38.82Q218.35 38.47 219.14 38.01Q220.43 37.25 221.53 36.17Q223.31 34.43 224.35 31.82Q225.39 29.19 225.39 25.79Q225.39 22.32 224.35 19.7Q223.31 17.07 221.53 15.33Q220.37 14.2 219.01 13.44Q218.28 13.03 217.49 12.74Q216.56 12.38 215.59 12.17Q214.22 11.88 212.79 11.88Q211.77 11.88 210.78 12.04Q209.43 12.26 208.14 12.77Q207.53 13.02 206.95 13.32Q205.39 14.15 204.07 15.42Q202.28 17.16 201.23 19.76Q200.2 22.35 200.2 25.79Q200.2 29.28 201.23 31.88Q202.28 34.47 204.05 36.22Q205.24 37.38 206.63 38.15Q207.33 38.54 208.09 38.84Q209.14 39.25 210.24 39.47ZM78.55 38.59L78.55 39L98.51 39L98.76 32.83L98.36 32.83L96.72 36.59Q96.43 37.35 96 37.77Q95.97 37.8 95.94 37.82Q95.51 38.19 94.76 38.19L86.68 38.19L86.68 25.75L90.96 25.75Q91.72 25.75 92.12 26.13Q92.14 26.15 92.16 26.17Q92.56 26.59 92.92 27.32L93.71 29L94.11 29L94.11 21.8L93.71 21.8L92.92 23.4Q92.6 24.11 92.18 24.53Q92.16 24.55 92.13 24.57Q91.72 24.95 90.96 24.95L86.68 24.95L86.68 13.4L93.88 13.4Q94.6 13.4 95 13.76Q95.04 13.8 95.08 13.84Q95.48 14.28 95.84 14.99L97.56 18.75L97.96 18.75L97.71 12.6L78.55 12.6L78.55 13L79.47 13.35Q80.23 13.63 80.45 14.09Q80.67 14.55 80.67 15.35L80.67 36.23Q80.67 37.03 80.41 37.5Q80.16 37.96 79.47 38.23L78.55 38.59ZM100.75 38.59L100.75 39L120.2 39L120.56 32.03L120.16 32.03L118.6 35.39Q117.95 36.76 117.25 37.48Q116.56 38.19 115.07 38.19L108.92 38.19L108.92 15.39Q108.92 14.59 109.19 14.09Q109.48 13.59 110.24 13.31L110.96 13L110.96 12.6L100.75 12.6L100.75 13L101.59 13.31Q102.4 13.59 102.63 14.07Q102.87 14.55 102.87 15.35L102.87 36.23Q102.87 37.03 102.65 37.5Q102.43 37.96 101.59 38.27L100.75 38.59ZM121.99 38.59L121.99 39L132.15 39L132.15 38.59L131.48 38.35Q130.85 38.09 130.52 37.61Q130.16 37.09 130.16 36.32L130.16 25.79L139.72 25.79L139.72 36.32Q139.72 37.11 139.46 37.58Q139.19 38.04 138.39 38.35L137.68 38.59L137.68 39L147.87 39L147.87 38.59L147.07 38.27Q146.31 38 146.03 37.52Q145.75 37.03 145.75 36.27L145.75 15.35Q145.75 14.55 146.03 14.07Q146.31 13.59 147.07 13.31L147.87 13L147.87 12.6L137.68 12.6L137.68 13L138.39 13.27Q139.19 13.56 139.46 14.01Q139.72 14.47 139.72 15.27L139.72 24.99L130.16 24.99L130.16 15.27Q130.16 14.47 130.43 14.01Q130.72 13.56 131.48 13.27L132.15 13L132.15 12.6L121.99 12.6L121.99 13L122.8 13.31Q123.6 13.59 123.85 14.07Q124.11 14.55 124.11 15.35L124.11 36.27Q124.11 37.03 123.85 37.52Q123.6 38 122.8 38.27L121.99 38.59ZM175.47 38.59L175.47 39L181.56 39L181.56 38.59L180.35 38.19Q179.7 37.99 179.43 37.56Q179.38 37.48 179.35 37.4Q179.11 36.84 179.11 36.04L179.11 18.12L194.4 39.11L196.63 39.11L196.63 15.6Q196.63 14.8 196.79 14.2Q196.84 14.03 196.93 13.88Q197.16 13.52 197.68 13.35L198.75 13L198.75 12.6L193.04 12.6L193.04 13L194.36 13.35Q194.92 13.5 195.22 13.86Q195.34 14.01 195.41 14.2Q195.68 14.83 195.68 15.64L195.68 30.71L182.4 12.6L175.32 12.6L175.32 13L176 13.67Q176.56 14.19 176.87 14.53Q177.19 14.87 177.45 15.35Q177.72 15.83 178.16 16.8L178.16 36.04Q178.16 36.84 177.84 37.42Q177.73 37.6 177.59 37.75Q177.29 38.06 176.8 38.19L175.47 38.59ZM164.69 37.97Q163.4 38.88 161.47 38.88Q159.65 38.88 158.39 38.04Q158.16 37.88 157.95 37.7Q156.59 36.51 155.97 33.65Q155.35 30.79 155.35 25.79Q155.35 20.75 155.97 17.9Q156.59 15.04 157.95 13.86Q158.16 13.67 158.39 13.52Q159.65 12.68 161.47 12.68Q163.4 12.68 164.69 13.59Q164.86 13.71 165.03 13.86Q166.4 15.04 167.01 17.9Q167.64 20.75 167.64 25.79Q167.64 30.79 167.01 33.65Q166.4 36.51 165.03 37.7Q164.86 37.84 164.69 37.97ZM216.01 37.97Q214.72 38.88 212.79 38.88Q210.97 38.88 209.71 38.04Q209.48 37.88 209.27 37.7Q207.91 36.51 207.29 33.65Q206.67 30.79 206.67 25.79Q206.67 20.75 207.29 17.9Q207.91 15.04 209.27 13.86Q209.48 13.67 209.71 13.52Q210.97 12.68 212.79 12.68Q214.72 12.68 216.01 13.59Q216.18 13.71 216.35 13.86Q217.72 15.04 218.33 17.9Q218.96 20.75 218.96 25.79Q218.96 30.79 218.33 33.65Q217.72 36.51 216.35 37.7Q216.18 37.84 216.01 37.97Z" fill="#292F36" fill-opacity="1.000000" fill-rule="evenodd"/>
</svg>
